<svg xmlns="http://www.w3.org/2000/svg" xmlns:xlink="http://www.w3.org/1999/xlink" preserveAspectRatio="xMidYMid meet" version="1.0" viewBox="-1.8 -0.1 504.8 448.2" zoomAndPan="magnify" style="fill: rgb(0, 0, 0);" original_string_length="13200" width="505px" height="448px"><g id="__id304_sdf0f70h5o"><path d="m492.627,341.124c-1.386-1.198-2.98-2.255-4.697-2.92-.344-.131-.507-.21-.956-.307,1.446-7.195,2.435-14.137,2.653-21.439.077-2.585.048-5.151-.039-7.735-.275-8.149-1.346-18.19-7.341-24.311-3.825-3.905-9.106-5.549-14.208-7.065-4.453-1.323-8.874-2.644-13.143-4.499-5.225-2.271-9.982-5.373-14.444-8.841-1.326-6.407-2.317-12.897-3.197-19.378-1.161-8.553-2.037-17.186-2.407-25.811-.207-4.838-.236-9.684-.04-14.523.16-3.937.47-7.741-.315-11.643-.998-4.961-3.389-9.391-6.394-13.418-3.066-4.11-6.835-7.738-9.037-12.432-2.312-4.927-3.441-10.203-4.5-15.511-.959-4.811-1.872-9.761-4.223-14.129-2.456-4.564-6.794-8.224-11.8-9.117-1.669-.297-3.438-.304-5.21.079-3.386.732-6.406,2.606-8.999,4.854-3.509,3.045-6.335,6.856-8.604,10.893-2.835,5.045-4.846,10.654-5.644,16.418-3.33-3.616-6.616-7.279-10.143-10.696-4.514-4.372-9.262-8.46-13.852-12.747-4.66-4.353-9.009-9.04-13.143-13.892-5.65-6.633-10.844-13.619-16.102-20.562-4.276-5.646-8.612-11.351-13.577-16.418-5.236-5.344-11.509-9.46-17.444-13.972-8.227-6.253-16.296-12.685-24.548-18.904-6.595-4.97-13.422-10.206-21.036-13.537-2.863-1.252-6.035-2.234-9.196-2.131-1.053.035-2.125.164-3.157.474-5.57,1.675-8.609,7.515-10.498,12.59-4.186,11.246-1.8,23.486,2.96,34.139,3.311,7.409,7.769,14.243,12.629,20.72,6.04,8.049,12.913,15.531,20.128,22.536,1.428,1.386,2.926,2.703,4.381,4.065-1.68-.183-3.358-.384-5.052-.474-5.294-.281-10.623-.15-15.747.237-7.287.55-14.611,1.711-21.549,4.065-4.015,1.362-8.023,3.265-11.445,5.88-3.753-1.624-7.798-2.77-11.801-3.552-3.025-.591-6.124-.967-9.235-.986-3.111-.02-6.24.3-9.235,1.144-3.316.935-6.456,2.526-9.077,4.776-1.926,1.652-3.431,3.667-4.775,5.801-3.854-4.356-8.298-8.339-13.221-11.327-3.121-1.894-6.549-3.453-10.143-4.183-1.46-.297-2.935-.481-4.42-.474-1.485.007-2.969.193-4.42.553-9.167,2.269-15.727,11.092-15.747,20.404-.013,6.068,2.22,11.968,5.052,17.247.958,1.785,2.123,3.438,3.236,5.131-.789-.791-1.486-1.673-2.289-2.447-2.838-2.735-5.725-5.562-9.393-7.143-1.862-.803-3.827-1.268-5.762-1.381-5.806-.342-11.453,2.42-14.208,8.091-.782,1.608-1.209,3.288-1.421,5.012-6.143-2.061-12.196-4.382-18.115-7.065-8.022-3.635-15.835-7.816-23.877-11.406-7.616-3.399-15.618-6.349-24.035-6.709-3.439-.147-6.905.18-10.261.948-3.209.734-6.351,1.956-8.406,4.657-3.919,5.152-1.729,12.195.868,17.404,2.562,5.139,6.027,9.787,9.709,14.169.299.356.644.673.947,1.026.205,1.994.532,4,1.026,5.92,1.102,4.281,2.635,8.453,4.381,12.511,2.036,4.733,4.419,9.307,6.986,13.774,1.479,2.574,2.962,5.126,4.696,7.538,5.437,7.563,11.902,14.366,17.721,21.628,5.651,7.052,10.007,14.939,15.037,22.417,3.271,4.864,6.864,9.479,10.853,13.774,4.036,4.346,8.421,8.355,12.985,12.156-.621,2.354-.555,4.923-.237,7.301.745,5.579,3.07,10.866,5.999,15.629,4.349,7.073,10.097,13.228,16.26,18.747,8.558,7.664,18.079,14.242,27.903,20.167,5.462,3.294,10.903,6.45,16.892,8.683,8.943,3.334,18.422,5.113,27.824,6.591,11.173,1.757,22.418,2.99,33.625,4.499,10.38,1.398,20.715,3.116,31.06,4.776,7.513,5.217,15.929,9.622,24.193,13.3,4.605,2.05,9.307,3.885,14.09,5.478,4.8,1.598,9.682,2.951,14.626,4.022,4.937,1.069,9.936,1.856,14.966,2.317,5.252.482,10.544.476,15.818.612,4.785.123,9.655.727,14.342,1.7,7.575,1.572,14.824,4.351,21.549,8.17,6.179,3.51,11.881,7.783,17.405,12.235,4.092,3.297,7.955,6.689,12.787,8.88,6.833,3.098,14.462,3.896,21.864,2.96,4.393-.556,8.711-1.684,12.867-3.197,7.379-2.686,14.266-6.583,20.68-11.09,13.345-9.377,24.365-21.456,33.231-35.086,4.364-6.707,8.335-13.787,11.209-21.272,4.364-11.362,6.684-26.41-3.67-35.362Zm-111.927-193.11c1.698-3.223,3.783-6.327,6.354-8.919,2.101-2.119,4.989-4.385,8.091-4.854,1.034-.156,2.1-.119,3.158.197,1.088.326,2.095.94,2.999,1.619.711.534,1.365,1.171,1.934,1.855.891,1.072,1.571,2.279,2.131,3.552,1.815,4.126,2.461,8.721,3.355,13.103,1.048,5.14,2.341,10.153,4.578,14.918,4.098,8.732,12.983,14.595,14.958,24.391.801,3.974.232,8.027.118,12.037-.124,4.398-.07,8.787.119,13.182.4,9.333,1.385,18.655,2.684,27.903.489,3.483,1.185,6.942,1.776,10.419-3.202-3.155-6.267-6.429-9.038-9.946-3.974-5.045-7.447-10.47-10.459-16.142-3.991-7.516-7.319-15.389-10.932-23.088-4.318-9.198-9.168-18.092-14.918-26.482-3.534-5.155-7.445-10.033-11.484-14.8-.418-6.574,1.535-13.168,4.578-18.944Zm-174.956.119c4.381-4.265,10.693-6.351,16.497-7.775,5.519-1.354,11.185-2.074,16.852-2.407,4.502-.266,9.107-.352,13.695-.079,4.507.268,8.993.904,13.301,2.052,3.463,3.133,6.828,6.343,9.55,10.222,5.752,8.195,8.055,17.977,4.381,27.509-.014.036-.025.082-.04.118-.035.072-.088.241-.118.316-.641,1.611-1.406,2.987-2.447,4.381-4.355,5.828-12.001,8.064-19.181,9.196-.923-1.796-1.843-3.592-3.078-5.21-2.818-3.69-6.448-6.714-10.616-8.762-2.726-1.339-5.645-2.195-8.564-2.999-3.12-.86-6.313-1.593-9.472-2.289-4.207-.928-8.387-1.821-12.511-3.079-2.597-.791-5.229-1.818-7.459-3.394-6.159-4.352-5.959-12.766-.789-17.799Zm-41.006,4.302c1.224-1.965,2.641-3.768,4.499-5.17,1.765-1.332,3.797-2.283,5.92-2.881,2.818-.793,5.759-.999,8.683-.868,2.924.13,5.831.597,8.643,1.223,2.117.472,4.179,1.232,6.236,1.974-5.152,7.517-3.986,18.099,3.315,23.838,4.084,3.21,9.292,4.778,14.247,6.039,5.971,1.518,12.054,2.586,17.997,4.223,5.801,1.598,10.658,3.541,14.721,8.13.983,1.11,1.846,2.307,2.605,3.552-1.174.109-2.348.245-3.513.316-1.981.121-3.936.187-5.92.237-2.901.073-5.82.067-8.722.04-3.615-.035-7.241-.11-10.853-.237-10.659-.375-21.269-1.119-31.928-1.42-2.919-1.113-5.753-2.525-8.485-4.026-4.343-2.384-8.496-5.131-12.156-8.486-3.219-2.951-6.18-6.49-7.657-10.656-1.939-5.471-.623-11.024,2.368-15.826Zm-46.768,1.381c.005-6.157,4.13-12.085,10.064-14.01,1.117-.363,2.272-.526,3.434-.553,1.161-.027,2.329.083,3.473.316,3.574.727,6.817,2.503,9.827,4.499,4.382,2.906,8.469,6.705,11.761,10.814-1.76,4.985-1.994,10.329-.158,15.51,2.007,5.665,6.043,10.37,10.538,14.248,2.726,2.351,5.819,4.434,8.998,6.393-12.321-.274-24.635-.59-36.901-1.815-.039-.004-.08.004-.118,0-3.016-2.81-5.803-5.929-8.406-9.117-3.385-4.145-6.478-8.587-8.88-13.38-1.996-3.983-3.635-8.394-3.631-12.905Zm-24.193,22.693c1.509-3.598,4.933-5.188,8.446-4.934,1.171.085,2.35.383,3.473.868,3.332,1.438,5.954,4.33,8.485,6.828,2.442,2.408,4.674,5.031,6.986,7.578-9.506-1.596-18.84-3.938-28.061-6.71.047-1.237.183-2.466.671-3.63Zm152.341,204.358c-7.43-1.187-14.861-2.368-22.299-3.473-11.358-1.687-22.766-2.92-34.139-4.5-8.951-1.242-17.932-2.666-26.64-5.131-3.923-1.11-7.789-2.414-11.485-4.144-5.65-2.645-11.01-6.081-16.26-9.432-10.442-6.667-20.613-14.195-29.008-23.365-4.743-5.181-9.067-11.031-11.485-17.681-.821-2.257-1.393-4.623-1.539-7.025-.01-.156.006-.315,0-.473,1.825,1.397,3.583,2.887,5.446,4.223,15.177,10.882,31.868,19.668,49.373,26.166,6.573,2.44,13.253,4.549,20.049,6.275,3.523.895,7.095,1.758,10.695,2.289,1.736.255,3.376-.947,3.631-2.684.255-1.736-.948-3.376-2.684-3.631-4.369-.637-8.732-1.721-12.984-2.881-6.314-1.721-12.52-3.809-18.628-6.157-17.221-6.618-33.561-15.495-48.386-26.482-7.389-5.475-14.494-11.447-20.759-18.194-3.763-4.052-7.175-8.395-10.261-12.985-1.403-2.087-2.777-4.185-4.104-6.314,10.391,7.66,21.616,14.245,33.073,20.01,14.459,7.275,29.445,13.479,44.676,18.943,10.659,3.825,21.439,7.432,32.402,10.301,1.698.444,3.424-.552,3.868-2.249.444-1.698-.552-3.464-2.25-3.907-10.781-2.818-21.407-6.343-31.889-10.104-14.988-5.377-29.737-11.508-43.966-18.667-18.532-9.324-36.604-19.861-50.715-35.283-.207-.227-.645-.666-.987-.986-4.147-4.895-8.367-9.734-12.195-14.879-3.338-4.486-6.076-9.467-8.604-14.445-2.184-4.301-4.051-8.767-5.604-13.339,2.021,1.961,4.045,3.901,6.157,5.762,13.345,11.758,28.409,22.091,44.676,29.364,6.389,2.856,13.047,5.014,19.694,7.183,8.991,2.933,18.051,5.629,27.193,8.051,11.147,2.954,22.416,5.539,33.744,7.696,6.261,1.192,12.534,2.318,18.865,3.078,1.742.209,3.343-1.02,3.552-2.762.209-1.742-1.06-3.343-2.802-3.552-6.787-.813-13.541-2.05-20.246-3.355-11.028-2.147-21.945-4.709-32.797-7.617-9.086-2.434-18.101-5.106-27.035-8.051-5.931-1.956-11.895-3.921-17.602-6.472-14.737-6.589-28.382-15.799-40.651-26.245-5.634-4.797-11.008-9.958-15.905-15.51-3.41-3.867-6.626-7.936-9.235-12.393-1.678-2.865-3.351-6.072-3.67-9.432-.123-1.295-.026-2.718.789-3.789,1.344-1.766,3.982-2.229,5.999-2.605,4.049-.755,8.225-.664,12.274.04,7.86,1.367,15.239,4.776,22.378,8.209,8.842,4.252,17.551,8.77,26.679,12.393,21.23,8.425,43.844,13.038,66.541,15.116,16.063,1.47,32.195,1.568,48.307,1.973,13.105.33,26.162,1.363,39.269,1.658,3.842.087,7.681.099,11.524.04,2.78-.043,5.552-.147,8.327-.316,10.994-.671,24.467-2.038,32.402-10.538.356-.314.625-.688.868-.986,1.823-2.253,3.147-4.967,4.183-7.657,4.17-10.824,2.165-22.172-4.026-31.81-5.83-9.078-14.638-15.489-22.338-22.851-11.611-11.103-22.782-23.331-30.547-37.493-5.739-10.468-10.063-23.329-5.683-35.086.791-2.124,1.839-4.105,3.078-5.999.793-1.212,1.902-2.297,3.315-2.723.811-.244,1.674-.311,2.565-.237,2.675.223,5.557,1.64,7.657,2.723,7.505,3.872,14.28,9.249,20.957,14.366,7.402,5.673,14.746,11.459,22.18,17.089,5.33,4.036,10.932,7.717,15.629,12.51,5.154,5.26,9.578,11.225,14.011,17.089,4.999,6.613,9.975,13.223,15.352,19.536,4.29,5.037,8.819,9.888,13.656,14.405,4.562,4.261,9.287,8.363,13.774,12.708,5.328,5.16,10.412,10.58,15.234,16.22.129.14.165.32.316.435,3.974,4.674,7.816,9.459,11.287,14.524,5.096,7.434,9.487,15.281,13.379,23.404,3.388,7.071,6.438,14.337,9.945,21.351,3.75,7.499,8.068,14.679,13.261,21.272,8.562,10.87,19.018,20.584,31.652,26.482,5.048,2.357,10.342,3.983,15.668,5.565,4.006,1.19,8.423,2.369,11.446,5.447,2.169,2.211,3.327,5.213,4.065,8.17,1.163,4.663,1.462,9.539,1.539,14.326.033,2.048.003,4.111-.079,6.157-.678,16.855-4.975,33.625-11.997,48.939-4.168,9.089-9.33,17.801-15.787,25.456-3.695,4.382-7.81,8.436-12.432,11.84-3.801,2.8-7.989,5.062-12.313,6.947-4.21,1.834-8.803,3.371-13.459,3.078-4.434-.278-8.402-2.351-12.195-4.499-3.799-2.152-7.555-4.447-11.445-6.433-10.428-5.324-21.664-8.685-33.191-10.617-8.769-1.47-17.64-2.172-26.522-2.447-4.691-.145-9.359-.018-14.05-.079-4.772-.062-9.571-.328-14.326-.71-11.621-.936-23.165-2.538-34.691-4.262-5.476-.819-20.991-3.161-20.991-3.161,0,0-3.701-.711-3.715-.707Zm244.259-6.631c-2.925,7.618-7.096,14.732-11.603,21.51-9.053,13.611-20.506,25.591-34.336,34.415-11.414,7.282-25.753,13.277-39.506,10.182-3.784-.851-7.387-2.455-10.577-4.657-2.347-1.62-4.49-3.54-6.709-5.328-4.347-3.503-8.801-6.919-13.497-9.945-7.293-4.7-15.17-8.399-23.562-10.656-.065-.017-.132-.022-.197-.04,2.969-.826,5.904-1.749,8.801-2.841,1.642-.62,2.475-2.463,1.855-4.105-.62-1.642-2.423-2.475-4.065-1.855-5.348,2.022-10.858,3.608-16.497,4.578-23.556,4.05-47.84-1.7-69.263-11.564-2.645-1.218-5.266-2.593-7.894-3.947,12.562,1.949,25.147,3.776,37.809,4.973,5.603.53,11.224.935,16.852,1.066,6.064.14,12.13-.044,18.194.197,8.369.332,16.736,1.111,24.983,2.605,10.269,1.859,20.253,4.956,29.561,9.709,3.311,1.69,6.49,3.588,9.709,5.446,4.865,2.808,9.903,5.509,15.589,6.078,6.806.681,13.526-1.692,19.576-4.578,2.571-1.227,5.092-2.578,7.498-4.105,5.174-3.282,9.824-7.299,14.01-11.761,7.144-7.614,12.938-16.474,17.642-25.772,4.751-9.393,8.387-19.432,10.932-29.718-.043-.017.077.021.119.04.117.052.239.138.355.197.282.145.56.303.828.473.681.433,1.307.909,1.894,1.461,1.789,1.676,3.076,3.83,3.828,6.157,2.296,7.087.25,15.072-2.328,21.785ZM326.694,90.603c1.041,1.581,2.894,2.475,5.097,2.475h.133c1.892-.03,3.932-.706,5.743-1.907l45.345-29.956c2.372-1.563,4.068-3.851,4.533-6.126.32-1.557.066-3.012-.881-4.448-1.038-1.575-2.909-2.475-5.143-2.475h-.112c-1.904.024-3.951.7-5.764,1.901l-45.348,29.956c-4.135,2.734-5.788,7.279-3.603,10.581Zm-14.764-19.037c.094,1.587.718,2.927,1.995,4.08.984.875,2.266,1.328,3.676,1.328.655,0,1.334-.097,2.025-.29,1.823-.525,3.622-1.702,5.061-3.332l36.073-40.688c1.443-1.63,2.396-3.555,2.692-5.432.353-2.239-.272-4.255-1.944-5.722-.776-.688-1.711-1.117-2.786-1.261-2.614-.374-5.704.99-7.985,3.555l-36.031,40.688c-1.88,2.119-2.918,4.762-2.776,7.074Zm-201.526,33.258c1.805,4.225,5.212,6.905,8.646,6.905.869,0,1.741-.175,2.589-.537,3.833-1.636,5.07-7.056,2.816-12.337l-26.087-61.095c-1.578-3.7-4.427-6.338-7.439-6.881h-.009c-1.192-.223-2.375-.091-3.748.513-3.848,1.648-5.103,7.062-2.855,12.337l26.087,61.095Zm-62.834-35.944l40.57,52.573c2.336,3.03,5.472,4.738,8.363,4.738,1.467,0,2.873-.441,4.077-1.376,1.714-1.322,2.565-3.555,2.333-6.126-.196-2.203-1.165-4.533-2.725-6.549l-40.57-52.615c-2.445-3.169-5.903-5.016-8.93-4.762h-.003c-1.216.097-2.336.513-3.507,1.449-1.714,1.322-2.565,3.555-2.333,6.12.196,2.203,1.165,4.533,2.725,6.549Zm249.023-3.972c.745.38,1.545.561,2.363.561,2.767,0,5.743-2.07,7.491-5.487l24.705-48.426c.987-1.938,1.427-4.044,1.24-5.927-.223-2.245-1.334-4.038-3.344-5.082-.908-.453-1.938-.628-3.006-.513-2.641.29-5.257,2.378-6.83,5.444l-24.705,48.426c-.987,1.938-1.427,4.044-1.24,5.933.223,2.245,1.334,4.038,3.326,5.07Zm-160.823,30.94c.758,5.312,4.168,9.144,8.254,9.144.305,0,.613-.018.92-.06,4.138-.592,6.739-5.523,5.927-11.233l-9.395-65.743c-.359-2.529-1.352-4.853-2.798-6.531-1.681-1.956-3.911-2.909-6.021-2.602l-.353.078c-4.135.591-6.736,5.505-5.927,11.191l9.392,65.755Z" style="fill: rgb(255, 255, 255);"></path></g></svg>